<?xml version="1.0" encoding="utf-8"?>
<!-- Generator: Adobe Illustrator 25.4.1, SVG Export Plug-In . SVG Version: 6.00 Build 0)  -->
<svg version="1.1" id="レイヤー_1" xmlns="http://www.w3.org/2000/svg" xmlns:xlink="http://www.w3.org/1999/xlink" x="0px"
	 y="0px" viewBox="0 0 723 141" enable-background="new 0 0 723 141" xml:space="preserve">
<g>
	<path d="M75.94,8.03c1.12,0.76,1.31,1.88,0.56,3.38c-0.76,2.25-1.12,4.69-1.12,7.31c3-0.37,6.37-1.12,10.12-2.25
		c0.75-1.49,2.06-2.25,3.94-2.25c3.74,0.38,7.31,1.5,10.69,3.38c1.87,2.63,1.12,4.32-2.25,5.06c-3.01,0-5.82,0-8.44,0
		c-3.01,0-7.69,0.38-14.06,1.12l-0.56,9.56c3.74-0.37,7.31-0.93,10.69-1.69c0.37-1.12,1.12-1.69,2.25-1.69
		c3.38,0,6.19,0.76,8.44,2.25c3.38,3.38,3,5.44-1.12,6.19c-9.76,0-16.69,0.38-20.81,1.12l-0.56,12.38
		c11.62-1.12,23.43-2.43,35.44-3.94c1.49-0.75,3-1.69,4.5-2.81c5.62,1.12,10.49,3.19,14.62,6.19c2.62,2.25,2.06,4.32-1.69,6.19
		c-14.62-1.49-26.63-2.06-36-1.69c-6.75,0-15,0.76-24.75,2.25c-11.63,1.88-21.94,3.75-30.94,5.62C27,65.6,20.62,67.1,15.75,68.22
		C8.24,64.85,5.99,62.97,9,62.6c1.87-0.37,4.12-0.75,6.75-1.12c11.25-2.25,27.75-5.06,49.5-8.44V40.66
		c-5.62,1.12-9.94,2.07-12.94,2.81c-1.5,0.38-3.01,0.76-4.5,1.12c-1.88-0.75-3.94-1.69-6.19-2.81c-1.12-0.75-0.76-1.31,1.12-1.69
		c4.5-0.75,12-2.25,22.5-4.5V25.47c-10.12,1.12-17.44,2.44-21.94,3.94c-1.88-0.37-4.13-1.31-6.75-2.81
		c-2.63-2.25-2.07-3.18,1.69-2.81c6.75-0.75,15.75-1.87,27-3.38V13.1c0-1.87-1.32-3.74-3.94-5.62c-2.25-2.62-1.12-3.94,3.38-3.94
		C69.56,3.91,73.31,5.42,75.94,8.03z M95.62,67.66c1.49,0.76,1.49,2.44,0,5.06c-0.38,1.5-0.76,3.38-1.12,5.62v37.12
		c0.37,4.13,0.75,7.31,1.12,9.56c-2.25,7.88-4.32,12.94-6.19,15.19c-1.12,1.49-2.25,1.49-3.38,0c-1.88-3.01-4.13-5.82-6.75-8.44
		c-3.38-2.63-6.75-4.88-10.12-6.75c-1.12-1.12-1.12-1.69,0-1.69c4.12,1.12,7.88,1.69,11.25,1.69c2.62-0.38,3.94-1.5,3.94-3.38
		c0.37-16.88,0.56-33.93,0.56-51.19c-0.38-1.12-1.32-1.69-2.81-1.69l-24.75,5.06c0.75,1.5,0.93,3.01,0.56,4.5
		c-0.38,3.38-0.56,6-0.56,7.88c3.38-1.12,6.93-2.62,10.69-4.5l1.69-1.69c3.74,0,6.75,0.56,9,1.69c1.12,1.5,0.56,2.81-1.69,3.94
		c-6,1.5-12.57,3.01-19.69,4.5c-0.38,4.5-0.56,8.07-0.56,10.69c3.38-0.75,6.56-1.87,9.56-3.38c1.49-0.75,2.62-1.49,3.38-2.25h3.38
		c2.25,0.38,4.12,0.94,5.62,1.69c2.62,2.25,2.25,3.75-1.12,4.5c-6.38,1.5-13.32,2.81-20.81,3.94v24.75
		c-1.5,7.12-4.13,7.88-7.88,2.25c-1.88-3.01-3.01-6-3.38-9c0.75-3,1.49-5.99,2.25-9c0.75-10.12,1.31-19.87,1.69-29.25
		c0-3.38,0-7.68,0-12.94c-0.38-0.37-0.76-1.12-1.12-2.25c-0.76-1.87,0.93-1.87,5.06,0c9-1.87,18.37-3.74,28.12-5.62
		c0.37-1.12,1.12-1.49,2.25-1.12C88.31,63.92,92.25,65.41,95.62,67.66z"/>
	<path d="M189,24.35c1.87,2.63,1.49,5.06-1.12,7.31c-4.5,9-9,17.44-13.5,25.31c11.25-2.25,19.87-5.99,25.88-11.25
		c2.25-0.37,4.68,0,7.31,1.12c1.87,0.38,3,1.12,3.38,2.25c0.37,1.5-0.56,2.81-2.81,3.94c-8.25,2.25-16.31,4.32-24.19,6.19
		c2.62,2.63,4.68,5.62,6.19,9c-0.76,4.5-0.94,11.25-0.56,20.25c0,7.51,0.18,16.69,0.56,27.56c-1.12,4.13-3.01,4.88-5.62,2.25
		c-2.63-3.74-4.32-7.31-5.06-10.69c1.49-8.24,2.06-19.69,1.69-34.31c0-3-0.19-5.81-0.56-8.44c-0.76-2.62-1.88-4.12-3.38-4.5
		c-2.25,1.12-4.13,1.32-5.62,0.56c-5.26,7.88-11.07,15-17.44,21.38c-0.76,0-1.12-0.56-1.12-1.69c9.37-14.99,15.56-27,18.56-36
		c2.25-7.12,3.94-13.12,5.06-18v-2.81c0-1.49-0.56-2.62-1.69-3.38c-0.38-1.87,0.37-3,2.25-3.38C181.69,17.79,185.62,20.22,189,24.35
		z M234.56,13.1c3,2.63,4.68,5.06,5.06,7.31c-2.25,4.13-7.88,15.38-16.88,33.75c0.75,0.76,2.43,0.94,5.06,0.56
		c6.75-1.49,15.37-3.74,25.88-6.75c1.87-1.87,3.38-3,4.5-3.38c3,0.38,6.37,1.12,10.12,2.25c3.38,2.63,3.38,4.5,0,5.62
		c-8.25,1.12-16.13,2.63-23.62,4.5c0.75,1.12,1.69,2.81,2.81,5.06c0.37,5.62,0.75,11.63,1.12,18c0,6.75,0,13.88,0,21.38
		c-0.38,10.88-1.32,19.12-2.81,24.75c-1.12,3-2.44,5.25-3.94,6.75c-1.5,2.25-3.01,2.06-4.5-0.56c-4.13-6.75-9.56-12.38-16.31-16.88
		c-1.12-1.12-0.94-1.69,0.56-1.69c4.87,1.88,9,3.01,12.38,3.38c2.25-0.37,3.74-1.87,4.5-4.5c0.75-4.87,1.12-12,1.12-21.38
		c0-3.38,0-7.31,0-11.81c0-4.12-0.19-8.81-0.56-14.06c-0.76-4.5-1.5-6.93-2.25-7.31c-4.5,1.12-8.25,1.88-11.25,2.25
		c-1.12,0-3.01-0.56-5.62-1.69c-5.26,8.63-10.5,15.38-15.75,20.25c-1.12,0.38-1.5-0.18-1.12-1.69
		c5.99-10.12,11.43-21.94,16.31-35.44c3-8.24,5.43-15.75,7.31-22.5c0.37-2.25-0.19-3.94-1.69-5.06c-1.88-1.87-1.5-3.18,1.12-3.94
		C229.5,10.28,232.31,11.22,234.56,13.1z"/>
	<path d="M333,63.16c1.49,0.76,2.06,2.07,1.69,3.94v7.31c4.5-1.12,8.06-2.25,10.69-3.38c2.25-1.49,4.5-2.25,6.75-2.25
		c2.62,0.76,4.87,1.69,6.75,2.81c3,2.25,2.81,4.32-0.56,6.19c-7.51,0.76-15.38,1.5-23.62,2.25v21.38c0,3.75,0.18,7.51,0.56,11.25
		c-0.38,2.63-1.12,4.88-2.25,6.75c-0.76,1.5-1.12,2.44-1.12,2.81c-1.5,1.87-2.63,2.81-3.38,2.81c-3.38-4.5-6.19-7.88-8.44-10.12
		c-1.5-1.49-3.19-2.62-5.06-3.38c-1.12-1.49-0.76-2.25,1.12-2.25c3,0.76,5.43,1.12,7.31,1.12c2.25,0,3.38-0.93,3.38-2.81V81.72
		c-9.38,1.88-16.88,3.75-22.5,5.62c-1.5,0-2.81,0-3.94,0c-1.5,0-3.19-0.37-5.06-1.12c-2.25-1.12-2.44-1.87-0.56-2.25
		c9.75-2.25,20.43-4.87,32.06-7.88v-5.62c0-2.62-1.32-5.06-3.94-7.31c0-1.49,1.31-2.25,3.94-2.25
		C328.68,61.29,330.75,62.03,333,63.16z M374.06,12.53c3.38,1.12,6.75,3.57,10.12,7.31c1.12,1.88,0.56,3.57-1.69,5.06
		c-3.38,6-7.51,12.57-12.38,19.69c1.49,1.12,2.81,2.81,3.94,5.06c14.62-3.74,19.87-5.06,15.75-3.94c0.75-4.87,1.31-9.93,1.69-15.19
		c0-1.49-0.76-2.62-2.25-3.38c-1.5-2.25-0.94-3.38,1.69-3.38c4.12,0.76,7.5,2.25,10.12,4.5c1.49,0.76,1.49,2.07,0,3.94
		c-2.63,4.5-5.06,8.63-7.31,12.38c3-1.12,5.43-1.87,7.31-2.25c1.49-0.75,2.81-1.49,3.94-2.25c0.37-0.75,1.87-1.12,4.5-1.12
		c4.5,0.38,7.31,1.88,8.44,4.5c0.75,0.76,0.37,1.5-1.12,2.25c-3.75,0.76-9.94,1.88-18.56,3.38c1.12,1.12,1.69,3.38,1.69,6.75v4.5
		c1.12,0,2.62-0.75,4.5-2.25c2.25,0,4.5,0.76,6.75,2.25c2.62,2.25,2.25,3.94-1.12,5.06c-2.63,0.38-6,0.94-10.12,1.69v11.25
		c2.25-0.75,4.31-1.69,6.19-2.81c2.25,0.38,4.12,0.94,5.62,1.69c2.25,1.88,2.25,3.57,0,5.06c-3.01,0.38-6.94,1.12-11.81,2.25v16.31
		c3.38-0.75,6.56-1.49,9.56-2.25c0.75-1.49,2.06-2.06,3.94-1.69c2.25,0,5.43,0.76,9.56,2.25c3,2.25,2.43,4.32-1.69,6.19
		c-13.88,0.38-29.25,2.25-46.12,5.62v11.25c0,3-0.38,5.62-1.12,7.88c-1.12,1.87-2.44,2.43-3.94,1.69c-1.88-1.5-3.38-3.94-4.5-7.31
		c-0.76-2.25-1.12-4.31-1.12-6.19c0.75-2.62,1.49-6.75,2.25-12.38c1.12-9.37,1.49-27.18,1.12-53.44c-0.38-1.87-1.12-2.81-2.25-2.81
		c-1.5,1.5-3.01,3.19-4.5,5.06c2.62,1.5,2.81,3.01,0.56,4.5c-1.88,1.5-4.5,2.25-7.88,2.25c-2.25,0-4.69,0-7.31,0
		c-3.75,0-6.75-0.75-9-2.25c-1.88-1.12-2.81-3.74-2.81-7.88V34.47l-1.12-0.56c-1.5,0.38-3.19,0.94-5.06,1.69
		c-2.63,9-6.38,16.69-11.25,23.06c-3.75,4.5-9.76,9.56-18,15.19c-1.5,0.76-1.88,0.38-1.12-1.12c9.75-10.12,16.5-21.18,20.25-33.19
		c-2.63,1.12-5.44,2.25-8.44,3.38c-1.88,0-3.57,0-5.06,0c-5.26-0.75-7.13-1.69-5.62-2.81c7.5-1.87,14.25-3.94,20.25-6.19
		c0.75-5.25,1.12-8.62,1.12-10.12c0-4.5-1.12-7.12-3.38-7.88c0-1.12,0.18-1.87,0.56-2.25c1.87-0.37,4.12-0.18,6.75,0.56
		c2.25,0.38,4.5,2.07,6.75,5.06c-0.38,1.5-1.32,5.44-2.81,11.81c2.62-1.12,4.68-1.87,6.19-2.25c0.37-1.49,1.49-2.06,3.38-1.69
		c1.87,1.12,4.12,2.44,6.75,3.94c2.25,1.12,2.06,2.63-0.56,4.5c-1.12,1.88-1.88,4.13-2.25,6.75c-0.76,3.38-0.94,6.57-0.56,9.56
		c0,1.5,0.75,2.25,2.25,2.25h3.94c2.25,0,4.12-0.56,5.62-1.69c1.49-3,2.25-6.56,2.25-10.69c0.37-1.49,0.93-1.69,1.69-0.56
		c0.75,3.38,1.69,6.94,2.81,10.69c6.75-11.62,11.25-22.31,13.5-32.06c-0.38-1.87-0.94-3.56-1.69-5.06
		C371.06,13.29,371.81,12.53,374.06,12.53z M307.69,110.97c-2.63,3.38-4.5,3.57-5.62,0.56c-0.76-1.87-1.12-4.31-1.12-7.31
		c0-1.12,1.69-2.81,5.06-5.06c2.25-2.25,4.31-4.68,6.19-7.31c1.49-1.49,2.06-0.75,1.69,2.25
		C311.99,102.73,309.94,108.35,307.69,110.97z M354.38,91.85c1.87,1.88,3.38,4.32,4.5,7.31c0.37,0.76,0.56,2.07,0.56,3.94
		c-1.5,4.13-3.75,4.13-6.75,0c-3.75-4.87-7.13-9.56-10.12-14.06c-0.76-1.49-0.19-2.06,1.69-1.69C347.62,88.1,351,89.6,354.38,91.85z
		 M375.19,63.72c0,7.13,0,13.32,0,18.56c0,7.88,0,15.94,0,24.19c4.87-1.12,10.69-2.43,17.44-3.94c0-7.12-0.19-12.38-0.56-15.75
		c-3.01,0.38-5.62,0.76-7.88,1.12c-1.88-0.75-3.57-1.49-5.06-2.25c-1.12-0.75-1.12-1.49,0-2.25c3.74-0.37,8.06-1.31,12.94-2.81
		c-0.38-5.62-0.56-9.56-0.56-11.81c-2.63,0.38-5.26,0.76-7.88,1.12c-1.5-0.37-3.19-0.93-5.06-1.69c-0.76-0.75,0-1.49,2.25-2.25
		c2.62-0.37,6.19-1.12,10.69-2.25c0-5.99-0.19-9.56-0.56-10.69c-0.76-1.49-1.88-2.06-3.38-1.69c-4.13,0.76-8.63,1.5-13.5,2.25
		C374.81,56.22,375.19,59.6,375.19,63.72z"/>
	<path d="M484.88,18.16c1.49,0.76,1.87,2.07,1.12,3.94c-0.38,2.63-1.5,7.51-3.38,14.62c3-0.75,5.06-1.31,6.19-1.69
		c0.37-1.49,1.31-2.25,2.81-2.25c2.62,0,5.06,0.38,7.31,1.12c2.25,0.76,3.38,1.69,3.38,2.81c0,1.5-0.94,2.44-2.81,2.81
		c-6.75,1.12-13.88,2.44-21.38,3.94c-4.88,0.76-12.94,2.81-24.19,6.19c-4.13,1.5-8.63,1.32-13.5-0.56
		c-1.88-0.75-2.44-1.49-1.69-2.25c1.87-1.12,5.06-1.87,9.56-2.25c14.25-3.38,23.99-5.62,29.25-6.75
		c-1.12-5.62-1.88-10.87-2.25-15.75c0-1.12-0.56-2.06-1.69-2.81c-1.5-0.75-2.44-1.49-2.81-2.25c-0.76-1.87-0.19-2.81,1.69-2.81
		c1.49,0,3.38,0.19,5.62,0.56C480,15.54,482.25,16.67,484.88,18.16z M496.12,92.97c1.12,0.76,2.25,1.88,3.38,3.38
		c0.37,0.76-0.19,1.88-1.69,3.38c-1.88,3.75-3.57,7.31-5.06,10.69c-0.76,1.12-1.32,2.44-1.69,3.94c0.37,2.63-0.94,3.38-3.94,2.25
		c-4.13-0.37-9.94,0.56-17.44,2.81c0,3.01-1.12,4.5-3.38,4.5c-2.63,0-4.88-2.62-6.75-7.88c-1.88-5.25-3.94-9.37-6.19-12.38
		c-3.01-4.87-2.81-6.75,0.56-5.62c2.62,0.76,4.87,0.94,6.75,0.56l23.62-6.75c2.62-1.87,4.31-2.62,5.06-2.25
		C492.75,91.1,495,92.22,496.12,92.97z M487.69,54.72c2.25,0.76,3.38,1.88,3.38,3.38c0,1.12-0.94,1.88-2.81,2.25
		c-9,1.5-15.94,3.19-20.81,5.06c-1.5,0.76-2.81,0.76-3.94,0c-0.76-0.37-1.5-0.93-2.25-1.69c-1.5-1.12-1.5-1.87,0-2.25
		c1.12-0.37,2.43-0.75,3.94-1.12c3.74-0.75,7.5-1.87,11.25-3.38c1.12-1.49,1.87-2.43,2.25-2.81
		C481.68,53.79,484.68,53.97,487.69,54.72z M489.94,73.28c1.12,0.76,1.69,1.32,1.69,1.69c0,1.5-0.94,2.44-2.81,2.81
		c-7.13,1.12-14.26,2.63-21.38,4.5h-1.69c-0.76,0-2.25-0.37-4.5-1.12c-0.76-0.75-0.94-1.31-0.56-1.69l4.5-1.69
		c8.24-2.62,12.94-4.68,14.06-6.19c1.12-0.75,2.43-0.93,3.94-0.56C486.93,72.16,489.18,72.92,489.94,73.28z M464.06,102.53
		c1.12,3.38,2.43,7.69,3.94,12.94c2.25-0.37,6.93-1.87,14.06-4.5c1.12-0.37,2.06-0.37,2.81,0c1.12-5.25,1.69-9.37,1.69-12.38
		c0-1.49-0.56-2.06-1.69-1.69L464.06,102.53z M544.5,19.28c3.38,1.88,6.37,3.75,9,5.62c3,2.25,2.43,4.32-1.69,6.19
		c-3.01,10.12-6,19.12-9,27c2.25,0.76,3.38,1.88,3.38,3.38c0,1.12-0.76,1.88-2.25,2.25c-4.88,0.38-14.06,1.88-27.56,4.5l-2.25,30.94
		v10.12c0,1.5,0.37,3.19,1.12,5.06c2.25,1.88,4.31,3.01,6.19,3.38c13.12,1.12,24.93,1.32,35.44,0.56c3-0.37,5.25-2.25,6.75-5.62
		c1.87-4.5,3.56-9.75,5.06-15.75c0.75-1.87,1.31-1.69,1.69,0.56c0.75,6.75,1.69,12.57,2.81,17.44c1.49,3.01,2.06,5.44,1.69,7.31
		c0,1.87-1.32,3.18-3.94,3.94c-3.75,1.12-8.25,1.69-13.5,1.69c-7.88,0.37-16.13,0.18-24.75-0.56c-8.25-0.38-14.26-1.88-18-4.5
		c-5.62-3.74-8.44-11.06-8.44-21.94v-31.5c0-0.75-0.19-1.49-0.56-2.25c-0.76-1.12-1.32-2.43-1.69-3.94
		c-0.38-1.87,0.56-2.62,2.81-2.25c1.87,0.38,4.5,1.5,7.88,3.38c1.12,0,7.88-2.06,20.25-6.19c1.87-8.62,3.18-17.81,3.94-27.56
		c-0.38-1.12-1.32-1.69-2.81-1.69c-6.75,1.88-13.88,3.94-21.38,6.19c-0.38,0.38-1.32,0.38-2.81,0c-1.88-0.37-3.38-0.75-4.5-1.12
		c-1.12-0.75-1.12-1.31,0-1.69c0.75-0.37,1.69-0.75,2.81-1.12c9.37-2.62,18-5.43,25.88-8.44C540.93,20.04,543.74,18.92,544.5,19.28z
		"/>
	<path d="M613.12,12.53c4.12,3.01,5.99,5.62,5.62,7.88c-0.38,1.12-0.76,2.63-1.12,4.5c-0.38,4.13-0.76,9.56-1.12,16.31
		c3.38-0.75,7.12-1.87,11.25-3.38c0.75-0.37,1.69-0.75,2.81-1.12c3.74,1.5,6.56,3.01,8.44,4.5c0.75,0.76,0.56,1.88-0.56,3.38
		c-0.38,6.38-0.76,12.38-1.12,18c-0.38,7.13-0.94,12.19-1.69,15.19c-2.63,7.51-4.69,10.12-6.19,7.88
		c-2.63-3.74-6.19-7.31-10.69-10.69c-1.5-0.75-1.69-1.31-0.56-1.69c4.87,0.38,7.88,0,9-1.12c0.37-1.87,0.75-4.68,1.12-8.44
		c0-5.99,0-12,0-18c0-1.12-0.56-1.87-1.69-2.25c-3.38,1.12-6.75,2.25-10.12,3.38c-0.76,12.01-1.12,23.82-1.12,35.44
		c0,9-0.19,17.07-0.56,24.19c-0.38,11.25-0.76,17.81-1.12,19.69c-0.38,2.25-1.69,3.18-3.94,2.81c-4.13-2.63-6.19-5.99-6.19-10.12
		c0.37-2.62,1.12-7.68,2.25-15.19c1.12-14.25,1.87-27.75,2.25-40.5c0-2.62,0-7.31,0-14.06c-4.13,1.12-6.94,1.88-8.44,2.25
		c-1.12,0-2.25-0.18-3.38-0.56c0.37,3.75,0.56,6.38,0.56,7.88c0.37,2.63,0.75,6.94,1.12,12.94c0,3.38,0.18,7.31,0.56,11.81
		c0,1.5-0.19,2.81-0.56,3.94c-0.76,1.12-1.69,1.5-2.81,1.12c-2.25,0-4.13-2.06-5.62-6.19c-0.76-1.12-1.12-3.38-1.12-6.75
		c0.75-2.62,1.12-4.87,1.12-6.75c0.37-4.87,0.56-7.88,0.56-9c0-4.5,0-7.88,0-10.12c-0.76-2.25-1.5-4.12-2.25-5.62
		c0.37-1.12,0.93-1.87,1.69-2.25c1.49,1.5,3.38,3.19,5.62,5.06c4.87-1.12,9.18-2.25,12.94-3.38c0-7.88,0-15.93,0-24.19
		c-0.38-1.49-1.32-3.18-2.81-5.06c-1.5-1.49-1.5-2.81,0-3.94C607.5,10.66,610.12,11.41,613.12,12.53z M667.12,6.35
		c5.25,2.25,8.06,3.94,8.44,5.06c0.75,2.63,0.56,7.51-0.56,14.62c-0.38,5.26-0.76,12.75-1.12,22.5c4.5-1.12,8.81-2.62,12.94-4.5
		c0.75-0.75,1.49-1.69,2.25-2.81c0.37-0.75,1.12-1.12,2.25-1.12c5.99,0.38,10.31,1.32,12.94,2.81c1.87,1.12,2.25,2.81,1.12,5.06
		c-2.25,1.12-4.69,1.88-7.31,2.25c-8.25,1.12-16.31,2.25-24.19,3.38c-0.38,10.5-0.76,20.81-1.12,30.94
		c6.37-1.12,12.74-2.43,19.12-3.94c1.12-0.37,2.06-0.75,2.81-1.12c3,1.12,6.93,3.94,11.81,8.44c0.75,1.12,0.37,2.07-1.12,2.81
		c-1.5,1.12-2.44,2.63-2.81,4.5c-3.01,9-6,17.44-9,25.31c-1.12,2.25-2.81,3.18-5.06,2.81s-4.32-1.49-6.19-3.38
		c-9,1.5-18,3.01-27,4.5c-0.76,3-1.5,4.68-2.25,5.06c-2.63,0.75-5.44-1.32-8.44-6.19c-3.01-9.37-5.44-18.93-7.31-28.69
		c-0.76-1.12-1.69-2.25-2.81-3.38c-1.5-1.49-1.5-2.43,0-2.81c0.75,0,2.62,0.38,5.62,1.12c5.62-0.37,13.31-1.49,23.06-3.38
		c0-23.99,0-48,0-72c-1.12-0.75-2.44-2.06-3.94-3.94c-1.88-2.62-2.25-4.31-1.12-5.06C661.5,5.6,664.5,5.98,667.12,6.35z
		 M646.88,94.1c1.49,1.88,2.43,5.06,2.81,9.56c1.12,5.26,2.25,10.5,3.38,15.75c10.49-1.49,21-3.18,31.5-5.06
		c2.62-9.75,4.5-18,5.62-24.75c-0.76-2.25-1.69-3-2.81-2.25C673.88,89.6,660.38,91.85,646.88,94.1z"/>
</g>
</svg>
